<?xml version="1.0" standalone="no"?>
<!DOCTYPE svg PUBLIC "-//W3C//DTD SVG 20010904//EN"
 "http://www.w3.org/TR/2001/REC-SVG-20010904/DTD/svg10.dtd">
<svg version="1.0" xmlns="http://www.w3.org/2000/svg"
 width="180.000000pt" height="180.000000pt" viewBox="0 0 180.000000 180.000000"
 preserveAspectRatio="xMidYMid meet">
<metadata>
Created by potrace 1.14, written by Peter Selinger 2001-2017
</metadata>
<g transform="translate(0.000000,180.000000) scale(0.100000,-0.100000)"
fill="#000000" stroke="none">
<path d="M1480 1780 c-31 -15 -106 -82 -246 -221 l-201 -201 -34 21 c-23 14
-51 21 -89 21 l-55 0 -367 -368 c-421 -421 -397 -384 -334 -511 l35 -68 -51
-49 c-86 -84 -97 -148 -35 -200 31 -26 35 -27 124 -21 l93 6 35 -68 c46 -92
75 -114 139 -108 l48 4 505 504 c278 277 518 524 534 548 23 35 29 56 29 99 0
58 -9 83 -48 124 l-25 28 90 93 c99 103 118 140 111 219 -12 120 -148 198
-258 148z m94 -167 c5 -13 -116 -140 -508 -533 l-515 -515 -7 -51 c-6 -48 -5
-52 16 -59 20 -6 55 26 274 244 138 138 259 251 269 251 9 0 17 -8 17 -17 0
-10 -111 -129 -246 -264 l-247 -247 54 -28 54 -28 -95 -14 c-52 -7 -102 -17
-110 -21 -10 -5 -20 -40 -29 -105 -8 -53 -17 -96 -21 -96 -3 0 -26 41 -50 91
l-45 91 -50 -5 c-27 -3 -72 -9 -100 -13 l-50 -6 70 71 69 71 -47 95 -47 95 41
-21 42 -21 192 192 c138 138 198 191 209 187 9 -4 16 -14 16 -24 0 -10 -81
-99 -181 -199 -174 -175 -179 -181 -156 -191 22 -10 30 -6 93 58 38 38 73 69
79 69 5 0 226 216 490 480 264 264 487 480 496 480 9 0 20 -8 23 -17z m-774
-567 c0 -8 10 -18 23 -22 l22 -7 -22 -10 c-13 -6 -23 -16 -23 -24 0 -7 -4 -13
-10 -13 -5 0 -10 6 -10 14 0 8 -10 18 -22 22 l-23 7 23 10 c12 6 22 16 22 24
0 7 5 13 10 13 6 0 10 -6 10 -14z m417 -27 c16 0 16 -1 -1 -8 -11 -4 -22 -14
-25 -22 -5 -11 -11 -9 -28 9 -15 15 -18 22 -8 22 7 0 17 10 21 22 l7 23 8 -23
c5 -12 16 -22 26 -23z"/>
</g>
</svg>
